HIERARCHY
ROOT Hips
{
    OFFSET 0.000000 0.000000 0.000000
    CHANNELS 6 Xposition Yposition Zposition Zrotation Xrotation Yrotation
    JOINT Spine
    {
        OFFSET -0.000000 7.979263 0.000000
        CHANNELS 3 Zrotation Xrotation Yrotation
        JOINT Spine1
        {
            OFFSET -0.000000 24.719021 0.000000
            CHANNELS 3 Zrotation Xrotation Yrotation
            JOINT Neck
            {
                OFFSET -0.000000 24.617504 2.237955
                CHANNELS 3 Zrotation Xrotation Yrotation
                JOINT Head
                {
                    OFFSET -0.000000 13.623132 -1.946162
                    CHANNELS 3 Zrotation Xrotation Yrotation
                    End Site
                    {
                        OFFSET -0.000000 24.327021 0.000000
                    }
                }
            }
            JOINT LeftShoulder
            {
                OFFSET 3.885773 23.018444 -0.302444
                CHANNELS 3 Zrotation Xrotation Yrotation
                JOINT LeftArm
                {
                    OFFSET 10.447750 0.000000 0.000000
                    CHANNELS 3 Zrotation Xrotation Yrotation
                    JOINT LeftForeArm
                    {
                        OFFSET 29.090096 0.000000 0.000000
                        CHANNELS 3 Zrotation Xrotation Yrotation
                        JOINT LeftHand
                        {
                            OFFSET 28.893339 0.000000 0.000000
                            CHANNELS 3 Zrotation Xrotation Yrotation
                            End Site
                            {
                                OFFSET 14.596213 0.000000 0.000000
                            }
                        }
                    }
                }
            }
            JOINT RightShoulder
            {
                OFFSET -3.864586 23.018444 -0.302444
                CHANNELS 3 Zrotation Xrotation Yrotation
                JOINT RightArm
                {
                    OFFSET -10.447750 0.000000 0.000000
                    CHANNELS 3 Zrotation Xrotation Yrotation
                    JOINT RightForeArm
                    {
                        OFFSET -29.090096 0.000000 0.000000
                        CHANNELS 3 Zrotation Xrotation Yrotation
                        JOINT RightHand
                        {
                            OFFSET -28.893339 0.000000 0.000000
                            CHANNELS 3 Zrotation Xrotation Yrotation
                            End Site
                            {
                                OFFSET -14.596213 0.000000 0.000000
                            }
                        }
                    }
                }
            }
        }
    }
    JOINT LeftUpLeg
    {
        OFFSET 9.730808 0.000000 0.000000
        CHANNELS 3 Zrotation Xrotation Yrotation
        JOINT LeftLeg
        {
            OFFSET -0.000000 -34.800129 0.000000
            CHANNELS 3 Zrotation Xrotation Yrotation
            JOINT LeftFoot
            {
                OFFSET -0.000000 -44.597416 0.000000
                CHANNELS 3 Zrotation Xrotation Yrotation
                JOINT LeftToeBase
                {
                    OFFSET -0.000000 -6.325025 14.596213
                    CHANNELS 3 Zrotation Xrotation Yrotation
                    End Site
                    {
                        OFFSET -0.000000 0.000000 3.892323
                    }
                }
            }
        }
    }
    JOINT RightUpLeg
    {
        OFFSET -9.730808 0.000000 0.000000
        CHANNELS 3 Zrotation Xrotation Yrotation
        JOINT RightLeg
        {
            OFFSET -0.000000 -34.800129 0.000000
            CHANNELS 3 Zrotation Xrotation Yrotation
            JOINT RightFoot
            {
                OFFSET -0.000000 -44.597416 0.000000
                CHANNELS 3 Zrotation Xrotation Yrotation
                JOINT RightToeBase
                {
                    OFFSET -0.000000 -6.325025 14.596213
                    CHANNELS 3 Zrotation Xrotation Yrotation
                    End Site
                    {
                        OFFSET -0.000000 0.000000 3.892323
                    }
                }
            }
        }
    }
}
MOTION
Frames:    7
Frame Time:    0.008333
43.779446    86.021713    10.170882    -9.039778    -10.995447    89.487167    1.948267    -5.944992    -4.965331    -1.078845    5.400860    -5.015603    11.574816    5.729503    8.287708    -5.762633    8.853123    7.123571    2.974412    6.192640    -20.994951    -81.880424    61.634464    15.509124    21.213844    -25.740170    -65.518639    -11.961209    -10.847387    -17.654100    -3.767092    -0.064988    5.126599    30.701233    30.736568    26.097137    -23.270712    -32.133347    36.124081    3.352914    -24.702389    25.262335    13.614874    -35.714985    6.457161    -13.287739    68.880219    20.708391    -11.449615    -0.443871    -7.724994    0.000000    0.000000    0.000000    15.179089    -26.460115    -0.736852    1.220824    22.744551    -8.463659    -1.052590    10.001328    15.146779    0.000000    0.000000    0.000000    
42.659725    85.236824    10.476114    -13.616874    -10.778312    89.553513    1.469000    -8.631275    -5.177059    0.107303    3.299499    -5.290996    11.042785    6.291784    8.124869    -5.415093    8.786556    7.082080    2.885404    6.244143    -20.858889    -83.191650    61.011990    17.191149    21.137774    -26.271069    -66.768921    -11.609480    -11.249279    -17.179823    -3.186549    -0.262680    5.559264    30.312611    30.867094    25.888657    -22.661051    -31.884022    35.408897    3.023424    -24.840212    25.080706    15.740311    -44.631653    8.764966    -15.702701    74.915398    23.369047    -10.059352    -3.290991    -8.465581    0.000000    0.000000    0.000000    16.181446    -32.332069    0.843723    0.846507    23.979273    -8.930834    -2.010651    7.968271    14.227186    0.000000    0.000000    0.000000    
42.697300    84.591881    10.224640    -14.386537    -10.256466    89.650146    1.872876    -9.414536    -5.107468    -0.005097    3.155429    -5.261529    10.468777    6.511061    8.206456    -5.137820    8.935572    7.266582    2.731394    6.143342    -20.118984    -83.964645    60.722443    18.440369    20.930218    -26.706524    -68.063248    -11.333585    -11.562865    -17.195358    -2.708268    -0.616602    6.080007    29.843323    30.616568    25.991594    -21.780733    -31.268663    34.715950    2.591305    -24.683241    24.527369    16.613733    -47.897503    9.445088    -23.210152    79.115265    31.457251    -9.155821    -7.116467    -8.365387    0.000000    0.000000    0.000000    15.684997    -33.521458    0.989844    1.006134    25.044968    -7.482964    -2.484468    5.029032    12.151394    0.000000    0.000000    0.000000    
44.323910    84.440552    9.664067    -9.035158    -9.176018    89.470215    1.854137    -5.608662    -4.362944    -0.161972    4.322071    -4.447659    10.362926    6.737323    8.058397    -5.487977    9.227408    7.134887    3.002348    6.363749    -19.823986    -84.652565    60.085400    18.883165    20.819120    -26.900347    -69.130150    -11.298253    -11.597951    -16.936312    -2.548593    -0.862318    6.311072    29.646784    30.561913    25.870989    -21.386990    -30.369268    33.673077    2.722525    -24.003693    25.102821    15.893140    -42.369194    8.846891    -34.207409    81.349091    42.247414    -7.906916    -10.954362    -7.852579    0.000000    0.000000    0.000000    13.800354    -26.877451    0.296818    1.388811    24.755163    -6.283097    -2.521224    2.354362    10.633588    0.000000    0.000000    0.000000    
42.756317    83.549950    9.950505    -15.106531    -9.562842    88.860481    2.018322    -9.366415    -4.208780    1.315549    2.317185    -4.400708    10.081943    6.310052    8.064154    -5.699881    9.603989    7.132619    3.135405    5.912564    -19.190481    -85.568695    59.320736    19.648079    20.695885    -26.726568    -70.251701    -11.299051    -11.184624    -17.004490    -2.639735    -1.240066    6.417189    29.535521    30.070280    26.067848    -20.587744    -29.352047    33.023075    2.749380    -23.273083    25.044941    20.990610    -52.795029    12.214073    -77.497147    84.558136    86.389374    -7.805715    -13.670148    -9.091590    0.000000    0.000000    0.000000    15.964520    -35.717838    1.902823    0.446714    27.977530    -5.861516    -2.650822    1.595212    10.297073    0.000000    0.000000    0.000000    
44.447887    83.671715    9.579794    -8.502746    -9.165865    88.111000    2.174341    -4.203769    -3.206985    1.729026    3.978202    -3.346849    9.849834    6.200036    8.175045    -6.033331    9.357515    7.227266    3.004657    5.884583    -18.624382    -85.402428    58.333176    19.791759    20.336201    -26.399122    -71.577560    -11.186177    -10.750143    -16.951876    -2.788044    -1.339384    6.631073    29.573513    29.212250    26.266407    -19.656490    -28.374424    32.333862    3.195231    -22.537390    25.004271    21.399158    -45.689678    11.457852    -103.716835    83.508339    111.303650    -6.761949    -16.703094    -8.306800    0.000000    0.000000    0.000000    14.749199    -27.723360    0.797813    0.455722    27.401947    -5.519028    -2.567348    0.646827    10.983130    0.000000    0.000000    0.000000    
42.673473    82.944801    9.731564    -16.033049    -9.887320    86.963425    3.205200    -9.530783    -2.711633    2.987257    2.380380    -3.040952    9.374058    5.452279    8.163127    -6.034250    9.703849    7.214287    2.595636    5.953051    -18.188290    -84.619926    56.991535    19.556398    19.974495    -25.847368    -72.801331    -11.122958    -10.106833    -16.821058    -2.945276    -1.197417    6.936113    29.775658    27.930902    26.327368    -18.621799    -27.668016    31.977968    4.165910    -21.946833    24.870901    30.099146    -57.118988    17.920002    -132.522858    80.138306    140.707520    -6.566710    -19.169722    -8.973857    0.000000    0.000000    0.000000    17.605280    -37.899593    3.176112    -0.048039    30.321894    -6.124467    -2.809458    1.369497    12.067973    0.000000    0.000000    0.000000    
